<svg width="871" height="633" fill="none" xmlns="http://www.w3.org/2000/svg">
    <g clip-path="url(#prefix__clip0_151:2)">
        <path
            d="M149.512 574.456s.69-14.47 14.847-12.788zM145.512 560.686a7.085 7.085 0 100-14.17 7.085 7.085 0 000 14.17zM146.359 565.532h-2v14h2v-14zM663.512 563.456s.69-14.47 14.847-12.788zM659.512 549.686a7.085 7.085 0 100-14.17 7.085 7.085 0 000 14.17zM660.359 554.532h-2v14h2v-14z"
            fill="#E6E6E6" />
        <path
            d="M870.057 618.485C623.825 540.538 400.548 544.69 256.603 561.9 100.655 580.545 1.699 618.089.718 618.466L0 616.599c.984-.378 100.173-38.011 256.365-56.685a1486.947 1486.947 0 01276.89-7.083 1444.351 1444.351 0 01337.406 63.748l-.604 1.906z"
            fill="#3F3D56" />
        <path d="M574.512 599.456s.69-14.47 14.847-12.788z" fill="#3F3D56" />
        <path d="M570.512 585.686a7.085 7.085 0 100-14.17 7.085 7.085 0 000 14.17z" fill="#FF3FE6" />
        <path d="M571.359 590.532h-2v14h2v-14z" fill="#3F3D56" />
        <path
            d="M245.368 169.326c17.444-9.668 35.163-20.029 47.489-35.708 12.873-16.374 18.368-40.865 6.438-57.939-10.021-14.342-29.976-19.385-46.974-15.24-16.999 4.145-31.229 15.953-42.281 29.517 3.616-16.671-13.966-32.768-30.96-31.291-16.995 1.476-30.631 16.33-35.168 32.774-4.538 16.444-1.586 34.042 3.283 50.391a222.96 222.96 0 0039.465 75.339 72.784 72.784 0 019.865-13.784c13.418-14.756 31.398-24.391 48.843-34.059z"
            fill="url(#prefix__paint0_linear_151:2)" />
        <path
            d="M185.068 217.967a221.108 221.108 0 01-48.86-87.939c-4.786-16.975-7.59-36.276-.417-53.023 5.548-12.953 17.372-24.673 32.03-25.758 15.468-1.145 32.64 13.179 29.326 29.558-.247 1.223 1.364 2.514 2.318 1.35 12.381-15.113 29.4-29.034 49.682-30.398 18.065-1.216 37.041 7.811 42.303 26.162 5.48 19.114-3.976 39.335-17.218 52.851-14.691 14.993-33.813 24.346-51.862 34.557-17.759 10.047-35.821 21.648-46.744 39.408a62.63 62.63 0 00-9.367 27.191c-.858 9.979 1.638 19.414 6.469 28.115 5.131 9.243 11.476 17.668 16.11 27.211a137.785 137.785 0 0110.332 29.571 139.59 139.59 0 01.09 61.9c-8.515 37.143-33.359 69.833-66.422 88.64a136.816 136.816 0 01-12.305 6.186c-1.629.72-.22 3.111 1.399 2.395a142.438 142.438 0 0075.82-82.042c13.989-39.71 8.626-85.464-13.751-121.062-5.857-9.317-12.622-18.351-14.551-29.451-1.767-10.171.409-20.781 4.704-30.06 9.197-19.871 27.427-32.788 45.841-43.449 18.409-10.658 38.075-19.888 53.676-34.671 13.888-13.16 24.134-31.938 21.729-51.609a37.78 37.78 0 00-11.794-23.49 44.444 44.444 0 00-23.759-10.716c-19.66-2.772-38.089 6.556-52.101 19.74a116.56 116.56 0 00-10.242 11.06l2.317 1.348c2.991-14.784-8.761-28.366-22.522-32.105-14.965-4.067-29.8 4.682-38.424 16.542-10.771 14.815-11.652 33.814-8.503 51.282 3.266 18.12 10.028 35.86 18.241 52.289a225.068 225.068 0 0034.494 50.378c1.201 1.326 3.157-.64 1.961-1.961z"
            fill="#3F3D56" />
        <path
            d="M186.338 608.116l-9.898 2.809-38.889-123.842 28.537-4.92 20.25 125.953zM70.169 608.828l-9.788-2.098 25.32-126.908 27.533 8.97-43.065 120.036z"
            fill="#9F616A" />
        <path
            d="M174.41 632.173c2.71 1.237 4.981-6.429 7.267-4.183 6.394 6.284 21.734 4.876 21.734 4.876a4 4 0 002.519-5.209 3.987 3.987 0 00-2.773-2.475l-6.8-1.7-10.678-18.778-11.637-1.473-.294.481a30.01 30.01 0 00-3.215 24.534c.968 3.101 2.285 3.2 3.877 3.927zM55.952 626.71c2.438 1.711 6.071-5.411 7.908-2.784 5.139 7.346 20.477 8.765 20.477 8.765a4.009 4.009 0 002.713-1.596 3.997 3.997 0 00-1.558-6.004l-6.375-2.915-7.066-20.413-11.172-3.575-.377.419a30.01 30.01 0 00-7.645 23.534c.385 3.225 1.662 3.563 3.095 4.569zM153.356 392.749c5.212 8.015 10.264 16.11 12.499 25.322a509.41 509.41 0 0111.55 68.517c-18.108 10.39-33.818 16.353-49.164 17.381a69.84 69.84 0 01-2.138.107l-5.595-31.583-4.462 31.235a72.35 72.35 0 01-6.647-1.017c-9.62-1.93-19.416-5.873-29.882-11.928a159.718 159.718 0 01-4.677-45.689c.86-20.563 5.51-38.167 10.012-52.304l68.504-.041z"
            fill="#2F2E41" />
        <path
            d="M114.919 299.629l-24.6-8.364c8.9-8.713 12.534-18.278 8.856-29.029l27.552 4.92c-6.538 12.601-15.098 20.188-11.808 32.473z"
            fill="#9F616A" />
        <path
            d="M153.356 392.749c-22.378 17.801-45.16 19.853-68.504.041 9.41-29.546-9.788-57.33-6.992-78.305 1.745-13.086 7.187-29.294 19.842-33.063l13.592 4.153a28.8 28.8 0 0119.471 20.331l1.608 6.258c7.781 8.278 10.375 19.157 8.355 32.364 1.706 3.747.923 8.473.14 13.207-.741 4.502-1.483 9.012-.084 12.682 3.009 7.892 7.856 15.079 12.572 22.332"
            fill="#E6E6E6" />
        <path
            d="M119.839 278.472c12.228 0 22.14-9.912 22.14-22.14s-9.912-22.14-22.14-22.14-22.14 9.912-22.14 22.14 9.912 22.14 22.14 22.14zM195.865 382.394l-15.509-5.077 1.131-12.445 17.03-.379a9.175 9.175 0 017.116 3.137 9.191 9.191 0 011.908 3.496 9.172 9.172 0 01-4.031 10.375 9.176 9.176 0 01-7.645.893z"
            fill="#9F616A" />
        <path opacity=".2"
            d="M165.855 418.071c-6.411-3.006-21.002-10.585-42.082-25.945-29.028-21.157-21.645-72.817-21.645-72.817l38.74 38.425c-.741 4.503-1.483 9.013-.084 12.683 6.334 16.612 20.813 30.105 25.071 47.654z"
            fill="#000" />
        <path
            d="M183.308 381.302c-21.004 4.653-38.187 7.443-52.153-2.46-22.149-25.76-34.737-51.62-30.025-77.663a12.626 12.626 0 019.165-9.888 12.697 12.697 0 0115.153 7.663l16.734 56.082 43.347 8.39-2.221 17.876z"
            fill="#2F2E41" />
        <path
            d="M150.39 436.896a10.857 10.857 0 01-10.578-8.488l-1.289-5.802 21.158-4.7 1.289 5.802a10.837 10.837 0 01-8.229 12.929c-.772.172-1.561.259-2.351.259zm-10.199-13.227l.986 4.436a9.438 9.438 0 1018.427-4.094l-.985-4.436-18.428 4.094z"
            fill="#3F3D56" />
        <path
            d="M141.899 247.078s3.554-27.661-25.446-18.59c0 0-20.713-3.8-27.505 22.108l-6.878 27.157 3.352-1.824 1.563 3.416 5.431 1.375 2.325-4.613 1.124 5.602 44.488 4.435s-19.925-11.783-20.241-32.902l3.795 4.01 17.992-10.174zM290.65 213.266h49.522l-5.875 52.044-43.647-1.084v-50.96zM276.311 330.63c-14.87 5.311-5.311 58.417-5.311 58.417l12.746 61.603 11.683 83.908 19.118-3.186-6.372-65.852-3.187-80.721 27.616 70.1 20.18 77.535 19.118-4.249-4.248-27.615c-1.063-19.118-14.87-58.417-14.87-58.417l-15.932-110.46-60.541-1.063z"
            fill="#2F2E41" />
        <path
            d="M367.564 522.32s7.177 27.644 6.993 30.825l-.005.095a6.777 6.777 0 01-5.244 6.101c-3.049.722-7.078 1.698-9.236 2.31-2.044.58-12.035 3.86-19.335 1.31-7.3-2.549 15.451-15.703 15.451-15.703l-2.126-25.851 13.502.913zM312.17 529.848s1.84 27.58 1.052 30.667c-.789 3.087-2.584 1.533-2.584 1.533s-9.713.328-13.616.656c-2.116.179-12.551 1.489-19.229-2.408-6.678-3.898 19.229-13.523 19.229-13.523l1.792-24.72 13.356 7.795z"
            fill="#2F2E41" />
        <path
            d="M314.547 242.474c11.146 0 20.181-9.035 20.181-20.18s-9.035-20.18-20.181-20.18c-11.145 0-20.18 9.035-20.18 20.18s9.035 20.18 20.18 20.18z"
            fill="#FFB8B8" />
        <path d="M308.175 236.101l4.248 29.74 18.056-8.497-4.249-23.367-18.055 2.124z" fill="#FFB8B8" />
        <path
            d="M313.485 254.158l-3.553-5.758-3.882 4.695-16.994 5.311-4.248 25.491c-1.062 6.373 2.124 18.056 2.124 18.056s-11.683 23.367-10.621 31.864c1.062 8.497 55.23 5.31 55.23 5.31l15.932-84.969-13.807-4.249-4.249-5.311-12.745 6.373-2.125 8.497-1.062-5.31z"
            fill="#E6E6E6" />
        <path
            d="M338.051 206.989a6.28 6.28 0 00-6.277-6.277H301.51a7.945 7.945 0 00-7.945 7.945v12.199c14.499-7.343 29.385-6.052 44.486 0v-13.867z"
            fill="#2F2E41" />
        <path
            d="M268.845 407.24c-7.317-4.286-14.745-8.869-19.826-15.658-5.306-7.09-7.395-17.556-2.151-24.693 4.404-5.995 12.937-7.937 20.121-6.004 7.184 1.934 13.113 7.097 17.674 12.974-1.369-7.123 6.267-13.787 13.476-12.988 7.209.799 12.855 7.251 14.618 14.286 1.763 7.036.33 14.486-1.905 21.387a94.79 94.79 0 01-17.535 31.625 30.946 30.946 0 00-4.055-5.958c-5.554-6.408-13.1-10.686-20.417-14.971z"
            fill="#0863FF" />
        <path
            d="M315.61 337.003l-18.057 18.056s-15.931 21.243-8.497 25.491c7.435 4.249 16.994-20.18 16.994-20.18l22.305-15.932-12.745-7.435zM273.125 338.065l-1.063 10.622s8.497 16.994 2.125 22.304c-6.373 5.311-11.684-21.242-11.684-21.242l2.125-12.746 8.497 1.062z"
            fill="#FFB8B8" />
        <path
            d="M336.852 282.835l-5.311 30.801-21.242 24.429 20.18 9.559s14.87-22.304 20.181-29.739c5.31-7.435 7.434-45.671 5.31-54.168-2.124-8.497-8.497-9.56-8.497-9.56l-3.186 2.125-7.435 26.553zM291.181 296.642l-8.497 22.305-8.497 22.305-14.87-1.063s10.621-21.242 9.559-24.428c-1.062-3.187 10.621-40.361 12.746-47.796 2.124-7.435 7.434-9.559 7.434-9.559l8.497 2.124-6.372 36.112z"
            fill="#E6E6E6" />
        <path
            d="M341.321 253.964c-4.759 2.309-10.288 2.437-15.546 1.858a12.163 12.163 0 01-4.633-.981c4.19-2.428 6.454-7.177 7.791-11.832a49.935 49.935 0 001.522-7.391c.271-2.154.727-4.28 1.365-6.354a18.752 18.752 0 00-23.082-23.576 18.749 18.749 0 00-13.575 18.012 20.095 20.095 0 003.345 10.303 17.377 17.377 0 0013.238 7.802 2.93 2.93 0 011.964.844c1.766 1.773-1.319 5.342-.908 7.811.519 3.122.957 6.624-.894 9.192a10.546 10.546 0 01-3.825 2.945 40.739 40.739 0 01-18.647 4.696 20.909 20.909 0 007.093-12.311 20.06 20.06 0 00-2.518-13.678 37.012 37.012 0 01-1.784 14.051 16.185 16.185 0 01-4.458 7.428c-2.226 1.897-5.12 2.83-7.747 1.543a13.067 13.067 0 006.018-6.626 22.82 22.82 0 001.655-8.927c.194-2.728.08-5.47-.338-8.173a22.542 22.542 0 01-8.401 12.466 8.943 8.943 0 01-3.789 1.803 3.768 3.768 0 01-3.636-1.278 12.252 12.252 0 007.812-10.288c.19-2.404-.329-4.941.616-7.159.984-2.306 3.296-3.691 5.298-5.199 2.003-1.508 4.423-3.879 3.918-6.335-1.551-7.553-.318-16.103 5.037-21.651a29.007 29.007 0 013.25-2.813 24.846 24.846 0 016.426-3.827 10.707 10.707 0 017.349-.234c.201-1.286.543-1.235 1.591-1.654a11.226 11.226 0 014.279-.787c10.133.094 19.754 6.059 25.288 14.539a11.382 11.382 0 011.628 3.369c.214.971.299 1.966.251 2.959-.092 4.855-1.269 9.658-1.128 14.511.141 4.854 2.122 10.099 6.378 12.436.339 5.279-3.443 10.197-8.203 12.506z"
            fill="#2F2E41" />
        <path
            d="M333.352 228.41c1.229 0 2.225-1.594 2.225-3.561 0-1.966-.996-3.561-2.225-3.561-1.23 0-2.226 1.595-2.226 3.561 0 1.967.996 3.561 2.226 3.561z"
            fill="#FFB8B8" />
        <path d="M443.512 573.456s.69-14.47 14.847-12.788z" fill="#3F3D56" />
        <path d="M439.512 559.686a7.085 7.085 0 100-14.17 7.085 7.085 0 000 14.17z" fill="#FF3FE6" />
        <path d="M440.359 564.532h-2v14h2v-14zM316.512 596.456s.69-14.47 14.847-12.788z" fill="#3F3D56" />
        <path d="M312.512 582.686a7.085 7.085 0 100-14.17 7.085 7.085 0 000 14.17z" fill="#FF3FE6" />
        <path d="M313.359 587.532h-2v14h2v-14z" fill="#3F3D56" />
        <path
            d="M529.403 518.494s-4.684 16.133-7.807 20.296c-3.122 4.164-5.725 10.929-4.163 11.97 1.561 1.041 4.684 13.531.52 14.052-4.163.52-13.531-13.531-14.051-18.215-.521-4.684-2.603-21.338-2.603-21.338s-3.643-14.572 2.082-15.613c5.725-1.041 14.572-1.561 14.572-1.561l11.45 10.409zM551.261 535.668s6.765 17.694 8.327 18.735c1.561 1.041 7.286 10.409-4.164 10.409-11.449 0-17.695-3.123-17.695-3.123l-3.643-4.163s.001-10.929 1.041-12.491c1.041-1.561 0-9.367 0-9.367h16.134z"
            fill="#2F2E41" />
        <path
            d="M597.579 373.814s8.327 56.207 1.041 74.422c-7.286 18.215-14.572 23.419-14.572 23.419l-55.166 51.523s-17.174-8.848-15.613-14.573c0 0 3.643-2.081 4.164-3.643.52-1.561 7.286-2.081 7.286-2.081s3.122-3.643 3.122-5.725 27.063-39.032 35.91-41.634c0 0 4.684-5.725 4.163-6.766-.52-1.041 1.562-4.684 1.562-4.684l-5.205-20.297-32.787-5.204s-13.531-47.879-2.081-51.523c11.449-3.643 68.176 6.766 68.176 6.766z"
            fill="#2F2E41" />
        <path
            d="M532.525 410.244l-1.041 8.327s0 21.858 1.041 23.94c1.041 2.082 1.562 5.204 0 7.286-1.561 2.082-4.163 7.286-3.122 9.368 1.04 2.081-2.082 60.89 2.081 65.053 4.164 4.164 2.602 9.368 2.082 9.889-.52.52.52 2.602.52 2.602s21.338 3.643 19.777 0-1.561-5.725-2.602-6.766c-1.041-1.041 0-2.602 0-2.602s-1.562-16.654 0-17.695c1.561-1.041 6.245-51.002 6.245-51.522 0-.521 1.561-1.562 1.561-3.643 0-2.082 0-8.848 2.602-9.889 2.602-1.04 2.082-26.541 2.082-26.541l-31.226-7.807z"
            fill="#2F2E41" />
        <path
            d="M569.476 224.45s-2.082 15.613-8.327 18.736c-6.245 3.123-10.409 4.684-10.409 4.684l5.205 18.215 2.081 15.613h23.94l13.011-10.409-4.164-17.174-2.081-3.123s-2.602-11.449-.521-15.092c2.082-3.643-18.735-11.45-18.735-11.45z"
            fill="#9F616A" />
        <path
            d="M579.884 262.442l-3.643 6.765s-2.602-9.367-6.245-10.929c-3.643-1.561-12.49-4.163-12.49-6.245 0-2.081.52-7.286-1.562-7.286-2.081 0-22.378 6.245-25.501 8.327-3.122 2.082-3.643 4.164-3.643 4.164l5.725 59.849s-8.327 28.103-5.725 39.032c2.603 10.929 4.684 12.491 10.929 14.052 6.246 1.561 2.603-3.643 20.818 1.561 18.215 5.205 29.664 3.643 33.828 3.643a14.57 14.57 0 017.806 2.602c1.041.521.521-2.602-3.122-7.286-3.644-4.683-2.082-12.49-2.082-12.49s4.163-13.531 1.561-18.735c-2.602-5.205-6.245-11.97-3.122-14.052 3.122-2.082 7.286-17.695 7.286-17.695l11.449-40.593-23.419-16.134s1.04 7.286-2.603 8.848a309.242 309.242 0 01-6.245 2.602z"
            fill="#E6E6E6" />
        <path
            d="M609.028 266.605h3.123s5.204 8.848 5.204 15.093c0 6.245-2.602 41.634-2.602 41.634l-15.092 15.613-3.643-11.97-1.041-26.542 14.051-33.828z"
            fill="#E6E6E6" />
        <path
            d="M600.702 321.771s17.174-4.684 16.653 2.602c-.52 7.286-3.122 16.133-11.449 18.215-8.327 2.082-10.929-9.368-10.929-9.368s-1.041-10.408 5.725-11.449z"
            fill="#E6E6E6" />
        <path
            d="M536.168 345.711s1.041 23.939 7.286 26.542l-15.092 3.643s-7.286-24.981-6.245-26.022c1.04-1.041 14.051-4.163 14.051-4.163z"
            fill="#9F616A" />
        <path opacity=".1"
            d="M532.265 264.263l-3.383-4.944s-12.49 19.256-11.449 32.267c1.041 13.011 2.081 13.531 2.081 15.613 0 2.082 2.603 2.082 0 4.684-2.602 2.602-6.245 6.245-4.163 8.327 2.082 2.081 3.643 2.081 3.123 4.684a34.438 34.438 0 00-.521 5.724s4.424 8.587 5.985 8.587 16.394 13.792 16.394 12.23c0-1.561-1.562-12.49-1.562-14.051s-.52-6.766-1.561-8.327-1.041-1.041 0-2.602 1.041 0 1.041-1.561c0-1.562-.521-3.643 1.041-4.164 1.561-.52 3.122 0 2.081-2.602-1.04-2.602 0-4.684.521-4.684.52 0 3.122-.52 1.561-2.082-1.561-1.561 3.123-31.746 3.123-31.746s-.781-7.546-14.312-15.353z"
            fill="#000" />
        <path
            d="M535.127 253.074l-8.847 4.164s-12.49 19.256-11.449 32.266c1.04 13.011 2.081 13.531 2.081 15.613 0 2.082 2.602 2.082 0 4.684-2.602 2.602-6.245 6.245-4.163 8.327s3.643 2.082 3.122 4.684a34.44 34.44 0 00-.52 5.725s4.684 24.98 6.245 24.98 16.133-2.602 16.133-4.163c0-1.562-1.561-12.491-1.561-14.052s-.52-6.765-1.561-8.327c-1.041-1.561-1.041-1.041 0-2.602s1.041 0 1.041-1.561-.521-3.643 1.041-4.164c1.561-.52 3.122 0 2.081-2.602s0-4.684.521-4.684c.52 0 3.122-.52 1.561-2.081-1.561-1.562 3.123-31.747 3.123-31.747s4.684-16.653-8.848-24.46z"
            fill="#E6E6E6" />
        <path
            d="M584.048 239.023c10.635 0 19.256-8.622 19.256-19.256 0-10.635-8.621-19.256-19.256-19.256s-19.256 8.621-19.256 19.256c0 10.634 8.621 19.256 19.256 19.256z"
            fill="#9F616A" />
        <path
            d="M591.123 208.677a37.939 37.939 0 007.403 1.747c1.897.296 4.116.448 5.449-.933 1.308-1.356 1.096-3.617.204-5.276-.892-1.659-2.322-2.959-3.394-4.508-1.686-2.436-2.681-5.665-5.378-6.892a9.897 9.897 0 00-3.5-.654c-6.997-.446-14.28-.848-20.76 1.83a15.281 15.281 0 00-6.266 4.458 16.623 16.623 0 00-2.504 4.857 31.694 31.694 0 005.702 30.435c2.361-2.128 1.334-7.045 4.322-8.129.981-.355 2.089-.108 3.093-.389 3.156-.885 2.997-5.762 5.625-7.722a5.04 5.04 0 001.496-1.229 3.062 3.062 0 00.291-1.551c.019-1.827-.839-6.468.903-7.72 1.774-1.275 5.61 1.06 7.314 1.676z"
            fill="#2F2E41" />
        <path
            d="M578.509 120.58c-17.21-10.08-34.678-20.858-46.628-36.826-12.48-16.675-17.392-41.29-5.06-58.075 10.359-14.1 30.428-18.668 47.323-14.12 16.895 4.547 30.841 16.69 41.568 30.512-3.22-16.752 14.74-32.426 31.694-30.547 16.955 1.88 30.234 17.053 34.38 33.6 4.146 16.548.777 34.07-4.479 50.3a222.957 222.957 0 01-41.243 74.38 72.68 72.68 0 00-9.535-14.014c-13.063-15.071-30.81-25.131-48.02-35.21z"
            fill="url(#prefix__paint1_linear_151:2)" />
        <path
            d="M637.636 170.64a221.099 221.099 0 0050.935-86.755c5.188-16.857 8.449-36.085 1.676-52.998-5.239-13.081-16.781-25.078-31.409-26.511-15.436-1.512-32.943 12.4-30.02 28.853.219 1.229-1.423 2.48-2.349 1.294C614.45 19.121 597.766 4.8 577.523 2.954c-18.031-1.644-37.216 6.93-42.912 25.15-5.933 18.979 3.04 39.419 15.958 53.246 14.33 15.337 33.225 25.141 51.026 35.778 17.515 10.466 35.297 22.493 45.795 40.507a62.629 62.629 0 018.719 27.406c.62 9.996-2.099 19.369-7.135 27.954-5.35 9.118-11.893 17.39-16.752 26.821a137.727 137.727 0 00-11.031 29.316 139.579 139.579 0 00-1.56 61.881c7.63 37.335 31.691 70.606 64.298 90.192a136.518 136.518 0 0012.155 6.477c1.611.759.145 3.115-1.456 2.361a142.445 142.445 0 01-73.851-83.82c-13.041-40.031-6.593-85.645 16.623-120.701 6.077-9.175 13.055-18.046 15.246-29.097 2.008-10.126.085-20.785-3.988-30.163-8.723-20.084-26.641-33.43-44.797-44.525-18.151-11.093-37.591-20.787-52.837-35.937-13.572-13.486-23.369-32.501-20.497-52.11a37.773 37.773 0 0112.349-23.204A44.441 44.441 0 01566.882.338c19.72-2.304 37.922 7.458 51.618 20.973a116.62 116.62 0 019.976 11.298l-2.349 1.294c-2.639-14.851 9.433-28.15 23.279-31.562 15.057-3.71 29.68 5.389 38.02 17.45 10.416 15.067 10.846 34.081 7.283 51.47-3.695 18.037-10.877 35.612-19.477 51.84a225.12 225.12 0 01-35.682 49.546c-1.232 1.297-3.141-.715-1.914-2.007z"
            fill="#3F3D56" />
        <path
            d="M614.097 325.488a2.18 2.18 0 002.509-1.132c2.392-4.782 16.458-15.537 2.831-19.239-9.107-2.474-10.536 10.469-12.563 15.601a2.481 2.481 0 001.676 3.31l5.547 1.46z"
            fill="#9F616A" />
        <path
            d="M655.117 422.856a8.699 8.699 0 0010.769.466 8.698 8.698 0 002.542-2.883l9.17-16.8-6.935-5.749-15.117 11.453a8.7 8.7 0 00-3.439 6.654 8.703 8.703 0 003.01 6.859z"
            fill="#FFB9B9" />
        <path
            d="M665.853 399.431l10.708 8.636 58.377-45.251-3.454-78.756a31.811 31.811 0 00-11.76 21.487l-10.002 44.489-43.869 49.395z"
            fill="#083F3F" />
        <path
            d="M778.461 582.505h14.508l1.382-127.115h-29.016l13.126 127.115zM742.537 589.414h14.508l1.382-135.406-29.016-1.382 13.126 136.788z"
            fill="#FFB9B9" />
        <path
            d="M723.884 466.443l35.924 1.382 1.382-7.599 2.073 10.362 33.16-1.381c-.005-33.6-.722-70.727 3.454-83.593l-76.683 7.6c-6.04 26.032-6.784 50.694.69 73.229zM786.816 615.666c7.754 0 13.834 3.011 13.128-4.712l-2.009-26.112a5.716 5.716 0 00-1.034-3.083 5.716 5.716 0 00-2.55-2.017c-5.527-6.479-11.054-7.17-16.581-2.073a13.768 13.768 0 00-2.996 7.872l-1.124 25.934c-.389 7.538 5.618 4.191 13.166 4.191zM715.998 616.032l36.871-.976a6.254 6.254 0 005.388-6.38l.694-18.018a3.41 3.41 0 00-3.145-3.571l-5.669-.437c-.673-6.169-4.429-7.665-9.672-6.908l-16.581 18.653-10.925 3.059a7.46 7.46 0 00-5.368 8.293 7.462 7.462 0 008.407 6.285z"
            fill="#2F2E41" />
        <path
            d="M758.427 257.808c11.828 0 21.416-9.589 21.416-21.416 0-11.828-9.588-21.417-21.416-21.417-11.828 0-21.417 9.589-21.417 21.417 0 11.827 9.589 21.416 21.417 21.416z"
            fill="#FFB9B9" />
        <path
            d="M747.373 274.388l36.615-10.363c-8.189-3.185-11.35-8.742-9.672-16.58h-24.179c3.108 11.808 3.121 21.444-2.764 26.943z"
            fill="#FFB9B9" />
        <path
            d="M721.121 402.195c20.664 2.64 39.702-5.36 57.686-11.399 8.118-2.727 16.297.119 23.834-4.491-3.259-32.101-.095-68.261 6.828-106.795a9.132 9.132 0 00-6.208-10.326l-22.727-7.231-20.035 6.908-10.362 2.073-21.339 14.418a7.798 7.798 0 00-3.321 7.793 255.773 255.773 0 01-4.356 109.05z"
            fill="#083F3F" />
        <path d="M779.152 391.141l6.909 17.962 6.908-10.363-8.981-8.981-4.836 1.382z" fill="#FFB9B9" />
        <path
            d="M737.876 228.755c8.327-5.344 16.631-7.104 24.913-5.601a18.715 18.715 0 0115.046 15.454c.402 2.531.28 5.118-.358 7.6l-.052.201 1.238-2.327a31.255 31.255 0 003.182-20.143 22.172 22.172 0 00-22.753-18.276l-4.66.194a22.342 22.342 0 00-21.288 20.018 3.075 3.075 0 001.458 2.932 3.073 3.073 0 003.274-.052z"
            fill="#2F2E41" />
        <path
            d="M782.606 389.759l9.672 12.436 33.852-50.432-2.928-51.236a38.755 38.755 0 00-19.87-31.666l.691 78.757-21.417 42.141z"
            fill="#083F3F" />
    </g>
    <defs>
        <linearGradient id="prefix__paint0_linear_151:2" x1="223.78" y1="217.169" x2="223.78" y2="58.57"
            gradientUnits="userSpaceOnUse">
            <stop stop-color="#86007F" />
            <stop offset=".2" stop-color="#0200F7" />
            <stop offset=".4" stop-color="#02811A" />
            <stop offset=".6" stop-color="#FEFF42" />
            <stop offset=".8" stop-color="#FFA42B" />
            <stop offset="1" stop-color="#FA061C" />
        </linearGradient>
        <linearGradient id="prefix__paint1_linear_151:2" x1="-154136" y1="39833.8" x2="-153534" y2="14474.6"
            gradientUnits="userSpaceOnUse">
            <stop stop-color="#86007F" />
            <stop offset=".2" stop-color="#0200F7" />
            <stop offset=".4" stop-color="#02811A" />
            <stop offset=".6" stop-color="#FEFF42" />
            <stop offset=".8" stop-color="#FFA42B" />
            <stop offset="1" stop-color="#FA061C" />
        </linearGradient>
        <clipPath id="prefix__clip0_151:2">
            <path fill="#fff" d="M0 0h870.661v633.001H0z" />
        </clipPath>
    </defs>
</svg>
