<svg width="893" height="706" viewBox="0 0 893 706" fill="none" xmlns="http://www.w3.org/2000/svg">
<g clip-path="url(#clip0_151:113)">
<path d="M561.335 643.116L547.84 643.115L541.42 591.063L561.338 591.064L561.335 643.116Z" fill="#9E616A"/>
<path d="M564.777 656.197L521.264 656.195V655.645C521.264 651.153 523.048 646.845 526.225 643.669C529.401 640.493 533.708 638.709 538.2 638.708H538.201L564.778 638.71L564.777 656.197Z" fill="#2F2E41"/>
<path d="M512.903 643.116L499.408 643.115L492.988 591.063L512.905 591.064L512.903 643.116Z" fill="#9E616A"/>
<path d="M516.344 656.197L472.831 656.195V655.645C472.831 651.153 474.616 646.845 477.792 643.669C480.968 640.493 485.276 638.709 489.767 638.708H489.769L516.345 638.71L516.344 656.197Z" fill="#2F2E41"/>
<path d="M355.732 278.378C356.811 279.861 358.201 281.09 359.806 281.977C361.411 282.865 363.191 283.39 365.02 283.515C366.85 283.641 368.685 283.363 370.396 282.703C372.107 282.042 373.652 281.015 374.923 279.693L401.625 290.12L411.92 275.439L374.004 261.243C371.641 259.255 368.631 258.203 365.545 258.287C362.458 258.37 359.509 259.582 357.257 261.695C355.005 263.807 353.606 266.672 353.325 269.746C353.044 272.821 353.9 275.892 355.732 278.378V278.378Z" fill="#9E616A"/>
<path d="M512.732 367.331L477.575 378.799L489.319 627.783L516.453 628.454L530.339 452.867L533.492 627.761L567.042 629.61L579.41 367.331H512.732Z" fill="#2F2E41"/>
<path d="M489.011 220.559L579.244 200.953L589.278 278.649L580.923 315.773L584.269 372.19C584.269 372.19 512.921 407.702 477.575 378.799C477.575 378.799 505.984 304.18 489.517 269.249L489.011 220.559Z" fill="#E4E4E4"/>
<path d="M504.638 231.548L489.011 220.558C489.011 220.558 488.087 219.28 475.065 234.504C462.042 249.728 435.624 273.944 435.624 273.944L391.595 257.433L383.573 287.071L434.745 310.917L507.191 262.534L504.638 231.548Z" fill="#E4E4E4"/>
<path d="M584.286 401.314C585.944 400.531 587.41 399.394 588.581 397.982C589.752 396.571 590.6 394.92 591.064 393.146C591.528 391.372 591.597 389.517 591.267 387.713C590.937 385.909 590.215 384.2 589.153 382.705L604.372 358.413L591.866 345.563L570.855 380.171C568.462 382.122 566.867 384.883 566.374 387.931C565.881 390.979 566.523 394.102 568.179 396.708C569.834 399.314 572.388 401.223 575.357 402.072C578.326 402.921 581.502 402.651 584.286 401.314V401.314Z" fill="#9E616A"/>
<path d="M565.17 216.259L579.244 200.953C579.244 200.953 594.925 195.492 607.737 223.711C620.549 251.93 634.859 309.168 634.859 309.168L601.402 373.614L575.419 362.004L601.402 308.713L573.906 269.249L565.17 216.259Z" fill="#E4E4E4"/>
<path d="M541.305 194.58C555.499 186.821 560.716 169.024 552.956 154.83C545.197 140.636 527.401 135.42 513.207 143.179C499.013 150.938 493.796 168.735 501.555 182.929C509.314 197.123 527.111 202.339 541.305 194.58Z" fill="#9E616A"/>
<path d="M551.955 142.688C550.569 136.872 545.72 132.281 540.142 130.129C534.564 127.976 528.353 127.997 522.458 128.998C512.674 130.661 503.538 134.88 494.535 139.057L501.474 142.377L491.899 142.926L499.298 146.752C497.322 148.256 495.819 150.295 494.967 152.627C494.115 154.959 493.95 157.487 494.491 159.91C494.872 161.496 495.89 163.244 497.52 163.298C499.49 163.364 500.519 161.068 501.898 159.66C503.733 157.786 506.631 157.37 509.23 157.723C511.829 158.076 514.294 159.076 516.858 159.629C520.099 160.304 523.449 160.267 526.675 159.52C529.901 158.772 532.926 157.332 535.541 155.3L544.767 177.517C544.68 176.68 544.788 175.833 545.082 175.044C545.377 174.254 545.849 173.544 546.464 172.967C547.078 172.391 547.817 171.964 548.624 171.721C549.43 171.477 550.282 171.423 551.113 171.563C551.943 171.703 552.73 172.034 553.412 172.528C554.094 173.023 554.653 173.668 555.044 174.414C555.435 175.16 555.649 175.986 555.668 176.828C555.687 177.671 555.511 178.506 555.154 179.269C559.149 173.244 562.362 166.4 562.472 159.172C562.582 151.945 558.997 144.331 552.436 141.299" fill="#2F2E41"/>
<path d="M212.51 591.493L200.034 611.108L207.301 585.573C191.957 569.562 170.715 557.85 170.715 557.85C170.715 557.85 144.559 600.837 151.599 627.28C158.639 653.723 176.817 658.771 196.209 653.608C215.6 648.446 228.862 635.028 221.822 608.585C220.255 602.699 216.851 596.921 212.51 591.493Z" fill="#F2F2F2"/>
<path d="M196.003 613.063L196.35 614.366C200.306 629.538 200.898 642.039 198.1 651.698C198.062 651.839 198.015 651.976 197.977 652.117L197.324 651.925L196.699 651.732C199.869 641.263 198.454 628.034 195.007 614.8C194.9 614.372 194.791 613.938 194.67 613.508C193.161 607.918 191.313 602.351 189.301 596.999C189.148 596.583 188.988 596.163 188.828 595.743C186.136 588.693 183.194 582.055 180.468 576.333C180.278 575.928 180.08 575.525 179.885 575.128C175.232 565.463 171.287 558.615 170.401 557.102C170.296 556.916 170.235 556.815 170.221 556.791L170.788 556.454L170.793 556.445L171.366 556.106C171.379 556.13 171.587 556.469 171.949 557.105C173.32 559.476 176.961 565.935 181.158 574.616C181.345 575.008 181.543 575.412 181.734 575.817C183.95 580.458 186.3 585.678 188.536 591.219C189.099 592.609 189.639 593.986 190.153 595.349C190.32 595.767 190.48 596.187 190.632 596.603C192.808 602.388 194.598 607.874 196.003 613.063Z" fill="white"/>
<path d="M181.158 574.616C180.741 574.789 180.318 574.964 179.885 575.128C178.709 575.574 177.511 575.96 176.295 576.284C171.117 577.67 165.694 577.876 160.425 576.888C160.245 577.302 160.065 577.716 159.881 578.139C165.437 579.23 171.169 579.037 176.639 577.574C177.936 577.229 179.215 576.814 180.468 576.334C180.895 576.172 181.318 575.997 181.734 575.817C185.166 574.355 188.356 572.381 191.196 569.961C190.824 569.68 190.46 569.403 190.104 569.132C187.409 571.39 184.394 573.239 181.158 574.616V574.616Z" fill="white"/>
<path d="M190.153 595.349C189.715 595.493 189.273 595.624 188.828 595.743C188.694 595.785 188.552 595.823 188.417 595.859C182.804 597.354 176.913 597.469 171.246 596.194C165.579 594.92 160.304 592.294 155.871 588.541C155.715 588.99 155.558 589.44 155.409 589.894C159.992 593.666 165.408 596.291 171.208 597.553C177.008 598.815 183.025 598.677 188.76 597.15C188.941 597.102 189.122 597.054 189.301 596.999C189.751 596.872 190.192 596.741 190.632 596.603C197.428 594.416 203.45 590.318 207.978 584.799C207.67 584.473 207.362 584.147 207.048 583.823C202.658 589.227 196.786 593.233 190.153 595.349V595.349Z" fill="white"/>
<path d="M196.003 613.063C195.561 613.222 195.116 613.368 194.67 613.508C194.191 613.656 193.711 613.798 193.227 613.926C185.682 615.926 177.693 615.427 170.455 612.506C163.218 609.585 157.121 604.398 153.078 597.722C152.927 598.322 152.774 598.915 152.635 599.512C156.942 606.1 163.215 611.163 170.564 613.982C177.912 616.802 185.962 617.234 193.57 615.217C194.054 615.088 194.536 614.953 195.007 614.8C195.462 614.665 195.907 614.519 196.35 614.366C205.283 611.224 212.688 604.804 217.066 596.407C216.803 595.965 216.523 595.535 216.241 595.099C212.087 603.491 204.828 609.935 196.003 613.063Z" fill="white"/>
<path d="M699.174 593.538L686.879 612.868L694.041 587.704C678.92 571.926 657.987 560.384 657.987 560.384C657.987 560.384 632.211 602.747 639.148 628.805C646.086 654.864 664 659.839 683.11 654.751C702.219 649.664 715.288 636.441 708.351 610.382C706.807 604.582 703.452 598.888 699.174 593.538Z" fill="#F2F2F2"/>
<path d="M682.906 614.795L683.248 616.08C687.147 631.03 687.73 643.35 684.973 652.868C684.936 653.008 684.89 653.142 684.852 653.282L684.209 653.092L683.593 652.902C686.716 642.585 685.322 629.548 681.925 616.507C681.82 616.085 681.713 615.658 681.593 615.233C680.106 609.725 678.285 604.238 676.302 598.964C676.152 598.555 675.994 598.141 675.836 597.727C673.183 590.779 670.284 584.237 667.598 578.599C667.41 578.2 667.215 577.802 667.023 577.411C662.437 567.886 658.55 561.138 657.677 559.648C657.574 559.464 657.513 559.364 657.5 559.341L658.058 559.008L658.063 559L658.628 558.666C658.641 558.69 658.845 559.023 659.203 559.65C660.554 561.987 664.141 568.352 668.278 576.906C668.462 577.293 668.657 577.691 668.845 578.09C671.029 582.663 673.345 587.808 675.548 593.268C676.104 594.639 676.635 595.995 677.142 597.338C677.306 597.75 677.464 598.165 677.614 598.574C679.758 604.275 681.523 609.682 682.906 614.795Z" fill="white"/>
<path d="M668.278 576.906C667.867 577.077 667.45 577.25 667.023 577.411C665.864 577.851 664.683 578.231 663.485 578.55C658.382 579.916 653.038 580.119 647.846 579.146C647.669 579.554 647.491 579.962 647.309 580.378C652.785 581.453 658.433 581.263 663.824 579.822C665.103 579.481 666.362 579.073 667.598 578.599C668.019 578.44 668.436 578.267 668.845 578.09C672.227 576.65 675.371 574.704 678.169 572.319C677.803 572.042 677.444 571.77 677.094 571.502C674.437 573.728 671.467 575.549 668.278 576.906Z" fill="white"/>
<path d="M677.142 597.338C676.71 597.48 676.275 597.61 675.836 597.727C675.704 597.769 675.564 597.806 675.431 597.841C669.899 599.314 664.094 599.427 658.51 598.172C652.925 596.916 647.727 594.328 643.358 590.63C643.204 591.072 643.049 591.515 642.903 591.963C647.419 595.68 652.756 598.267 658.472 599.51C664.187 600.754 670.117 600.618 675.769 599.113C675.947 599.066 676.126 599.018 676.302 598.965C676.745 598.84 677.181 598.71 677.614 598.574C684.311 596.419 690.245 592.381 694.708 586.942C694.404 586.621 694.101 586.3 693.791 585.98C689.465 591.306 683.679 595.253 677.142 597.338V597.338Z" fill="white"/>
<path d="M682.906 614.795C682.472 614.952 682.033 615.096 681.593 615.233C681.121 615.379 680.648 615.519 680.171 615.646C672.736 617.616 664.863 617.125 657.73 614.246C650.598 611.367 644.59 606.256 640.605 599.677C640.456 600.268 640.306 600.853 640.169 601.441C644.413 607.933 650.596 612.923 657.837 615.701C665.079 618.479 673.012 618.905 680.509 616.918C680.986 616.791 681.462 616.657 681.925 616.507C682.373 616.374 682.812 616.23 683.248 616.079C692.052 612.983 699.35 606.656 703.664 598.38C703.405 597.945 703.129 597.522 702.851 597.092C698.758 605.362 691.604 611.712 682.906 614.795Z" fill="white"/>
<path d="M444.708 113.298C444.708 67.0605 412.472 29.5774 372.708 29.5774C332.943 29.5774 300.708 67.0605 300.708 113.298C300.708 155.234 327.224 189.967 361.824 196.068V203.958C361.824 205.448 362.416 206.877 363.47 207.931C364.524 208.985 365.953 209.577 367.444 209.577H377.972C379.462 209.577 380.892 208.985 381.946 207.931C383 206.877 383.592 205.448 383.592 203.958V196.068C418.191 189.967 444.708 155.234 444.708 113.298Z" fill="#2DCDFF"/>
<path d="M360.093 202.817C362.346 200.702 365.03 199.098 367.961 198.118C370.892 197.138 374 196.803 377.072 197.138C380.169 197.496 383.139 198.569 385.75 200.272C388.361 201.975 390.541 204.261 392.118 206.949C393.695 209.558 394.686 212.479 395.022 215.509C395.358 218.539 395.03 221.606 394.062 224.497C392.169 230.262 388.147 235.06 384.022 239.384C379.696 243.921 374.99 248.105 370.923 252.886C364.215 260.817 359.531 270.256 357.273 280.395C355.015 290.534 355.25 301.069 357.957 311.096C361.526 323.807 368.895 335.122 379.077 343.526C380.369 344.582 381.7 345.589 383.071 346.545C384.656 347.654 386.157 345.055 384.585 343.954C373.531 336.135 365.362 324.89 361.341 311.961C358.292 301.886 357.902 291.193 360.208 280.922C362.515 270.651 367.44 261.152 374.504 253.348C378.795 248.61 383.599 244.37 387.889 239.631C391.998 235.091 395.744 229.969 397.349 223.972C398.161 220.923 398.363 217.743 397.941 214.615C397.52 211.488 396.484 208.475 394.894 205.749C393.311 202.963 391.169 200.533 388.603 198.613C386.037 196.693 383.102 195.324 379.982 194.591C373.706 193.227 367.145 194.363 361.693 197.758C360.357 198.61 359.111 199.594 357.972 200.696C356.579 202.038 358.702 204.157 360.093 202.817V202.817Z" fill="#3F3D56"/>
<path d="M167.257 78.2399C145.227 27.5956 92.06 1.89896 48.5058 20.8451C4.95155 39.7911 -12.4969 96.2053 9.53342 146.85C29.5139 192.782 75.1063 218.191 115.91 208.388L119.669 217.03C120.38 218.662 121.709 219.946 123.366 220.598C125.022 221.25 126.87 221.218 128.502 220.508L140.034 215.491C141.666 214.781 142.95 213.452 143.602 211.795C144.254 210.139 144.221 208.291 143.511 206.658L139.752 198.017C174.743 174.849 187.237 124.172 167.257 78.2399Z" fill="#2DCDCD"/>
<path d="M117.01 216.347C118.441 213.05 120.549 210.09 123.198 207.659C125.846 205.228 128.975 203.381 132.383 202.237C135.73 201.11 139.282 200.728 142.792 201.118C146.301 201.508 149.683 202.66 152.7 204.494C155.809 206.335 158.489 208.819 160.563 211.778C162.636 214.737 164.054 218.104 164.724 221.655C166.261 229.883 163.767 238.265 160.932 245.926C157.96 253.957 154.256 261.756 152.19 270.096C149.314 281.817 149.256 294.053 152.02 305.801C154.785 317.549 160.293 328.475 168.093 337.684C177.918 349.069 190.857 357.332 205.318 361.457C207.092 361.957 208.884 362.384 210.691 362.75C212.576 363.131 213.382 360.24 211.488 359.857C196.442 356.76 182.73 349.063 172.249 337.833C161.138 325.82 154.426 310.397 153.208 294.079C152.555 285.812 153.313 277.494 155.449 269.481C157.728 261.025 161.587 253.108 164.496 244.869C167.271 237.007 169.239 228.564 167.495 220.244C165.891 212.919 161.446 206.529 155.135 202.479C152.111 200.485 148.72 199.111 145.16 198.439C141.6 197.766 137.942 197.808 134.399 198.561C127.162 200.201 120.822 204.536 116.668 210.684C115.658 212.217 114.803 213.847 114.117 215.55C113.379 217.332 116.28 218.109 117.01 216.347L117.01 216.347Z" fill="#3F3D56"/>
<path d="M782.652 689.952L798.823 689.951L806.515 627.578L782.649 627.579L782.652 689.952Z" fill="#FFB6B6"/>
<path d="M778.527 684.672L810.373 684.671H810.374C815.757 684.671 820.919 686.809 824.724 690.615C828.53 694.421 830.669 699.583 830.669 704.965V705.625L778.528 705.627L778.527 684.672Z" fill="#2F2E41"/>
<path d="M686.94 676.201L702.358 681.077L728.505 623.93L705.75 616.732L686.94 676.201Z" fill="#FFB6B6"/>
<path d="M684.6 669.923L714.963 679.527L714.964 679.527C720.096 681.151 724.372 684.746 726.853 689.523C729.334 694.3 729.815 699.866 728.192 704.998L727.994 705.626L678.28 689.902L684.6 669.923Z" fill="#2F2E41"/>
<path d="M723.35 405.089L714.377 430.397L714.122 567.029L688.674 660.575L719.913 669.293L754.419 581.087L765.487 503.612L780.072 581.538L778.064 674.158H810.84L813.314 531.429C814.009 491.345 806.995 451.5 792.654 414.062V414.062L723.35 405.089Z" fill="#2F2E41"/>
<path d="M712.663 302.57H765.64L787.776 324.706L794.389 416.206L714.377 429.082L688.674 341.778L702.671 304.674L712.663 302.57Z" fill="#E4E4E4"/>
<path d="M693.611 342.651L612.045 311.962L609.922 299.276L661.362 255.749L678.483 268.591L647.451 302.57L702.671 304.674L693.611 342.651Z" fill="#E4E4E4"/>
<path d="M671.255 273.552C678.54 273.552 684.445 267.647 684.445 260.362C684.445 253.078 678.54 247.172 671.255 247.172C663.97 247.172 658.065 253.078 658.065 260.362C658.065 267.647 663.97 273.552 671.255 273.552Z" fill="#FFB6B6"/>
<path d="M701.845 276.979L707.805 250.103C708.85 245.37 710.818 240.889 713.595 236.916C716.373 232.944 719.906 229.558 723.993 226.951C728.08 224.345 732.641 222.57 737.415 221.728C742.188 220.885 747.081 220.991 751.813 222.041C756.546 223.09 761.025 225.062 764.994 227.844C768.964 230.625 772.347 234.162 774.949 238.252C777.551 242.341 779.322 246.904 780.16 251.678C780.998 256.452 780.887 261.345 779.833 266.076L773.872 292.952C773.587 294.235 772.804 295.351 771.696 296.057C770.588 296.763 769.245 297 767.962 296.717L705.61 282.889C704.327 282.604 703.211 281.821 702.505 280.713C701.799 279.605 701.562 278.262 701.845 276.979Z" fill="#2F2E41"/>
<path d="M742.907 287.11C757.253 282.952 765.514 267.952 761.357 253.606C757.2 239.259 742.199 230.999 727.853 235.156C713.506 239.313 705.246 254.313 709.403 268.66C713.56 283.006 728.56 291.267 742.907 287.11Z" fill="#FFB6B6"/>
<path d="M698.808 250.364C700.492 242.813 705.102 236.238 711.627 232.081C718.152 227.925 726.06 226.526 733.615 228.193L738.99 229.385C746.541 231.069 753.116 235.679 757.272 242.204C761.429 248.729 762.827 256.636 761.16 264.191L761.041 264.729L749.682 262.21L748.213 250.501L745.032 261.179L739.162 259.877L738.421 253.969L736.816 259.356L698.689 250.901L698.808 250.364Z" fill="#2F2E41"/>
<path d="M726.117 290.608C725.744 289.768 725.615 288.839 725.747 287.929C725.878 287.019 726.264 286.164 726.86 285.464C734.959 275.893 747.374 257.642 739.526 242.948L738.962 241.892L769.694 248.708L759.462 294.848L730.451 293.583C730.158 293.57 729.865 293.532 729.578 293.469C728.816 293.3 728.105 292.952 727.503 292.455C726.902 291.958 726.426 291.325 726.117 290.608Z" fill="#2F2E41"/>
<path d="M763.533 303.124L849.813 315.392L854.638 327.316L813.862 380.963L794.363 372.141L817.287 332.24L762.925 342.163L763.533 303.124Z" fill="#E4E4E4"/>
<path d="M892.708 129.197C892.708 73.9683 854.204 29.1968 806.708 29.1968C759.211 29.1968 720.708 73.9683 720.708 129.197C720.708 179.287 752.38 220.774 793.708 228.06V237.484C793.708 239.264 794.415 240.972 795.674 242.231C796.933 243.489 798.64 244.197 800.42 244.197H812.995C814.776 244.197 816.483 243.489 817.742 242.231C819.001 240.972 819.708 239.264 819.708 237.484V228.06C861.036 220.774 892.708 179.287 892.708 129.197Z" fill="#196C62"/>
<path d="M791.434 235.916C794.164 233.349 797.42 231.407 800.975 230.223C804.53 229.039 808.3 228.641 812.024 229.058C815.683 229.489 819.195 230.747 822.295 232.736C825.396 234.726 828.002 237.395 829.918 240.541C831.869 243.646 833.123 247.137 833.595 250.773C834.067 254.409 833.745 258.104 832.653 261.604C830.531 268.474 825.874 274.227 821.019 279.383C815.841 284.883 810.167 289.913 805.216 295.628C797.144 305.009 791.472 316.209 788.687 328.266C785.901 340.323 786.085 352.876 789.224 364.847C793.423 380.232 802.294 393.934 814.614 404.061C816.11 405.279 817.65 406.44 819.233 407.545C820.818 408.654 822.319 406.054 820.747 404.955C807.554 395.629 797.782 382.235 792.93 366.825C789.245 354.797 788.723 342.021 791.414 329.732C794.105 317.443 799.918 306.055 808.292 296.667C813.382 290.985 819.114 285.924 824.262 280.297C829.191 274.909 833.717 268.859 835.742 261.739C836.762 258.143 837.058 254.38 836.614 250.669C836.169 246.958 834.994 243.371 833.154 240.117C831.323 236.789 828.824 233.876 825.813 231.56C822.803 229.243 819.347 227.574 815.661 226.656C808.17 224.934 800.303 226.239 793.77 230.287C792.168 231.3 790.674 232.475 789.313 233.795C787.922 235.138 790.044 237.258 791.434 235.916V235.916Z" fill="#3F3D56"/>
<path d="M801.835 396.219C809.12 396.219 815.025 390.313 815.025 383.029C815.025 375.744 809.12 369.839 801.835 369.839C794.551 369.839 788.646 375.744 788.646 383.029C788.646 390.313 794.551 396.219 801.835 396.219Z" fill="#FFB6B6"/>
<path d="M664.388 264.065C663.696 265.159 662.019 265 661.078 264.316C659.771 263.367 660.194 261.538 661.094 260.458C663.955 257.024 668.686 260.649 669.324 264.06C669.561 265.723 669.305 267.419 668.588 268.937C667.87 270.456 666.722 271.73 665.287 272.603C662.023 274.537 657.784 273.567 654.978 271.252C649.124 266.424 650.718 256.755 657.22 253.262C661.369 251.033 666.615 252.011 670.703 253.879C675.304 255.981 679.261 259.203 683.516 261.889C692.853 267.734 703.414 271.34 714.376 272.427C716.295 272.622 716.281 269.621 714.376 269.427C708.301 268.799 702.338 267.363 696.644 265.157C691.01 262.873 685.662 259.938 680.711 256.412C675.7 252.977 670.466 249.641 664.266 249.074C661.763 248.782 659.228 249.157 656.919 250.162C654.609 251.167 652.606 252.766 651.114 254.796C649.787 256.613 648.899 258.712 648.519 260.929C648.14 263.146 648.278 265.421 648.925 267.576C649.704 269.829 651.066 271.836 652.873 273.391C654.679 274.946 656.866 275.995 659.21 276.431C661.466 276.858 663.799 276.569 665.884 275.606C667.968 274.643 669.7 273.053 670.838 271.059C673.12 267.112 673.046 261.81 669.599 258.537C668.611 257.533 667.374 256.809 666.014 256.439C664.655 256.069 663.222 256.067 661.861 256.433C660.607 256.856 659.504 257.636 658.687 258.676C657.869 259.717 657.373 260.973 657.258 262.291C656.925 267.415 664.198 269.977 666.978 265.579C668.013 263.943 665.418 262.436 664.388 264.065V264.065Z" fill="#3F3D56"/>
<path d="M64.196 425.291L60.234 430.262L46.22 421.972L50.182 417L64.196 425.291Z" fill="#E4E4E4"/>
<path d="M78.819 446.651L82.319 451.874L67.597 459.197L64.097 453.974L78.819 446.651Z" fill="#E4E4E4"/>
<path d="M94.059 423.945L101.053 424.192L100.357 438.826L93.363 438.579L94.059 423.945Z" fill="#E4E4E4"/>
<path d="M229.196 29.291L225.234 34.262L211.22 25.972L215.182 21L229.196 29.291Z" fill="#E4E4E4"/>
<path d="M243.819 50.6509L247.319 55.8739L232.597 63.1969L229.097 57.9739L243.819 50.6509Z" fill="#E4E4E4"/>
<path d="M259.059 27.9451L266.053 28.1921L265.357 42.8261L258.363 42.5791L259.059 27.9451Z" fill="#E4E4E4"/>
<path d="M618.196 81.291L614.234 86.262L600.22 77.972L604.182 73L618.196 81.291Z" fill="#E4E4E4"/>
<path d="M632.819 102.651L636.319 107.874L621.597 115.197L618.097 109.974L632.819 102.651Z" fill="#E4E4E4"/>
<path d="M648.059 79.9451L655.053 80.1921L654.357 94.8261L647.363 94.5791L648.059 79.9451Z" fill="#E4E4E4"/>
<path d="M499.196 8.291L495.234 13.262L481.22 4.972L485.182 0L499.196 8.291Z" fill="#E4E4E4"/>
<path d="M513.819 29.6509L517.319 34.8739L502.597 42.1969L499.097 36.9739L513.819 29.6509Z" fill="#E4E4E4"/>
<path d="M529.059 6.94507L536.053 7.19207L535.357 21.8261L528.363 21.5791L529.059 6.94507Z" fill="#E4E4E4"/>
<path d="M620.182 382L616.22 387.771L630.234 397.393L634.196 391.623L620.182 382Z" fill="#E4E4E4"/>
<path d="M634.097 424.916L637.597 430.978L652.319 422.478L648.819 416.416L634.097 424.916Z" fill="#E4E4E4"/>
<path d="M663.363 407.046L670.357 407.333L671.053 390.347L664.059 390.061L663.363 407.046Z" fill="#E4E4E4"/>
<path d="M322.899 643.871L335.014 641.997L326.708 545.197L299.708 550.197L322.899 643.871Z" fill="#FFB6B6"/>
<path d="M319.196 640.393L343.057 636.703L343.058 636.703C347.091 636.08 351.206 637.084 354.498 639.495C357.791 641.905 359.991 645.525 360.614 649.558L360.691 650.052L321.624 656.093L319.196 640.393Z" fill="#2F2E41"/>
<path d="M195.562 642.671L207.81 643.192L222.708 557.196L195.708 557.197L195.562 642.671Z" fill="#FFB6B6"/>
<path d="M192.608 638.539L216.73 639.566H216.731C220.808 639.74 224.649 641.526 227.408 644.532C230.168 647.538 231.621 651.517 231.448 655.594L231.427 656.093L191.932 654.411L192.608 638.539Z" fill="#2F2E41"/>
<path d="M219.677 362.491C219.099 362.328 218.508 362.218 217.91 362.161L225.546 299.661L251.455 244.793C253.085 241.341 253.345 237.4 252.184 233.764C251.022 230.128 248.525 227.068 245.196 225.2C241.866 223.333 237.953 222.798 234.245 223.703C230.536 224.607 227.309 226.885 225.214 230.075V230.075C218.423 240.414 213.287 251.749 209.989 263.671L199.104 303.028L207.064 370.52C206.758 372.423 207.009 374.373 207.786 376.136C208.563 377.899 209.833 379.4 211.443 380.458C213.053 381.516 214.935 382.087 216.861 382.101C218.788 382.115 220.678 381.572 222.303 380.538C223.928 379.503 225.22 378.021 226.023 376.269C226.825 374.518 227.105 372.572 226.827 370.665C226.55 368.758 225.728 366.973 224.459 365.522C223.191 364.072 221.53 363.019 219.677 362.491H219.677Z" fill="#FFB6B6"/>
<path d="M235.408 304.951L202.675 267.504L218.891 229.363C221.014 224.368 225.005 220.401 230.013 218.308C235.021 216.215 240.648 216.163 245.694 218.161C250.74 220.159 254.805 224.051 257.022 229.005C259.238 233.959 259.431 239.583 257.559 244.677L235.408 304.951Z" fill="#2F2E41"/>
<path d="M289.822 185.574C297.698 171.167 292.403 153.104 277.996 145.229C263.59 137.353 245.527 142.648 237.651 157.055C229.776 171.461 235.07 189.524 249.477 197.4C263.884 205.275 281.947 199.981 289.822 185.574Z" fill="#FFB6B6"/>
<path d="M268.708 135.197H249.504C236.914 135.197 226.708 146.679 226.708 160.842L227.596 195.197C241.2 196.889 254.506 200.448 267.138 205.773L268.93 198.118L272.466 208.199C275.61 209.722 278.728 211.388 281.819 213.197C278.211 196.246 276.726 179.334 279.203 166.197H285.708V159.079L287.916 166.197H299.708V166.197C299.708 162.126 298.906 158.095 297.348 154.334C295.79 150.572 293.507 147.155 290.628 144.276C287.75 141.398 284.332 139.114 280.571 137.556C276.81 135.999 272.779 135.197 268.708 135.197V135.197Z" fill="#2F2E41"/>
<path d="M331.325 550.456L328.543 551.126L326.208 507.697L309.208 377.697L289.708 328.197L299.208 293.697C299.208 293.697 310.208 269.697 282.708 251.197L260.708 214.197C245.511 204.26 233.008 210.757 226.343 227.647C220.535 242.363 216.027 260.98 218.708 280.197C224.714 323.242 229.708 328.197 229.708 328.197C229.708 328.197 192.208 369.697 200.208 422.697L195.749 559.921L191.67 559.754L191.223 570.653L226.86 572.114L227.306 561.215L224.35 561.093L237.208 506.697L256.208 434.697L289.208 522.697L300.307 557.926L296.651 558.807L299.205 569.412L333.879 561.061L331.325 550.456Z" fill="#2F2E41"/>
<path d="M355.814 304.041C355.411 304.485 355.048 304.965 354.73 305.475L302.227 270.718L264.716 223.023C262.357 220.023 258.947 218.029 255.175 217.444C251.404 216.858 247.55 217.725 244.392 219.869C241.234 222.013 239.007 225.275 238.159 228.997C237.312 232.719 237.907 236.623 239.825 239.923V239.923C246.041 250.618 253.886 260.278 263.078 268.555L293.425 295.878L357.362 318.913C358.927 320.036 360.784 320.683 362.709 320.776C364.633 320.868 366.543 320.403 368.209 319.435C369.875 318.468 371.227 317.039 372.1 315.322C372.973 313.605 373.332 311.672 373.133 309.755C372.933 307.839 372.184 306.021 370.976 304.52C369.768 303.02 368.152 301.9 366.322 301.296C364.492 300.693 362.527 300.63 360.663 301.117C358.799 301.604 357.115 302.619 355.814 304.041H355.814Z" fill="#FFB6B6"/>
<path d="M311.366 264.258L263.24 276.811L236.362 245.262C232.843 241.131 231.077 235.787 231.442 230.372C231.807 224.957 234.274 219.9 238.317 216.278C242.359 212.657 247.657 210.759 253.079 210.989C258.502 211.219 263.619 213.56 267.34 217.511L311.366 264.258Z" fill="#2F2E41"/>
<path d="M684.394 657.112H37.1002C36.7844 657.112 36.4816 656.986 36.2583 656.763C36.035 656.54 35.9095 656.237 35.9095 655.921C35.9095 655.605 36.035 655.303 36.2583 655.079C36.4816 654.856 36.7844 654.73 37.1002 654.73H684.394C684.71 654.73 685.013 654.856 685.236 655.079C685.46 655.303 685.585 655.605 685.585 655.921C685.585 656.237 685.46 656.54 685.236 656.763C685.013 656.986 684.71 657.112 684.394 657.112Z" fill="#CACACA"/>
</g>
<defs>
<clipPath id="clip0_151:113">
<rect width="892.708" height="705.627" fill="white"/>
</clipPath>
</defs>
</svg>
